# 3ds Max Wavefront OBJ Exporter v0.97b - (c)2007 guruware
# File Created: 22.01.2012 15:30:59

mtllib Coin.mtl

#
# object Cylinder001
#

v  0.4848 7.7029 0.8396
v  -7.3521 4.8505 0.8396
v  -7.8551 7.7029 0.8396
v  -5.9039 2.3421 0.8396
v  -3.6851 0.4803 0.8396
v  -0.9634 -0.5103 0.8396
v  1.9330 -0.5103 0.8396
v  4.6548 0.4803 0.8396
v  6.8736 2.3421 0.8396
v  8.3218 4.8505 0.8396
v  8.8247 7.7029 0.8396
v  8.3218 10.5553 0.8396
v  6.8736 13.0637 0.8396
v  4.6548 14.9255 0.8396
v  1.9330 15.9161 0.8396
v  -0.9634 15.9161 0.8396
v  -3.6851 14.9255 0.8396
v  -5.9039 13.0637 0.8396
v  -7.3521 10.5553 0.8396
v  -7.3521 4.8505 0.9638
v  -7.8551 7.7029 0.9638
v  -5.9039 2.3421 0.9638
v  -3.6851 0.4803 0.9638
v  -0.9634 -0.5103 0.9638
v  1.9330 -0.5103 0.9638
v  4.6548 0.4803 0.9638
v  6.8736 2.3421 0.9638
v  8.3218 4.8505 0.9638
v  8.8247 7.7029 0.9638
v  8.3218 10.5553 0.9638
v  6.8736 13.0637 0.9638
v  4.6548 14.9255 0.9638
v  1.9330 15.9161 0.9638
v  -0.9634 15.9161 0.9638
v  -3.6851 14.9255 0.9638
v  -5.9039 13.0637 0.9638
v  -7.3521 10.5553 0.9638
v  -7.3521 4.8505 1.0881
v  -7.8551 7.7029 1.0881
v  -5.9039 2.3421 1.0881
v  -3.6851 0.4803 1.0881
v  -0.9634 -0.5103 1.0881
v  1.9330 -0.5103 1.0881
v  4.6548 0.4803 1.0881
v  6.8736 2.3421 1.0881
v  8.3218 4.8505 1.0881
v  8.8247 7.7029 1.0881
v  8.3218 10.5553 1.0881
v  6.8736 13.0637 1.0881
v  4.6548 14.9255 1.0881
v  1.9330 15.9161 1.0881
v  -0.9634 15.9161 1.0881
v  -3.6851 14.9255 1.0881
v  -5.9039 13.0637 1.0881
v  -7.3521 10.5553 1.0881
v  -7.3521 4.8505 1.2123
v  -7.8551 7.7029 1.2123
v  -5.9039 2.3421 1.2123
v  -3.6851 0.4803 1.2123
v  -0.9634 -0.5103 1.2123
v  1.9330 -0.5103 1.2123
v  4.6548 0.4803 1.2123
v  6.8736 2.3421 1.2123
v  8.3218 4.8505 1.2123
v  8.8247 7.7029 1.2123
v  8.3218 10.5553 1.2123
v  6.8736 13.0637 1.2123
v  4.6548 14.9255 1.2123
v  1.9330 15.9161 1.2123
v  -0.9634 15.9161 1.2123
v  -3.6851 14.9255 1.2123
v  -5.9039 13.0637 1.2123
v  -7.3521 10.5553 1.2123
v  -7.3521 4.8505 1.3366
v  -7.8551 7.7029 1.3366
v  -5.9039 2.3421 1.3366
v  -3.6851 0.4803 1.3366
v  -0.9634 -0.5103 1.3366
v  1.9330 -0.5103 1.3366
v  4.6548 0.4803 1.3366
v  6.8736 2.3421 1.3366
v  8.3218 4.8505 1.3366
v  8.8247 7.7029 1.3366
v  8.3218 10.5553 1.3366
v  6.8736 13.0637 1.3366
v  4.6548 14.9255 1.3366
v  1.9330 15.9161 1.3366
v  -0.9634 15.9161 1.3366
v  -3.6851 14.9255 1.3366
v  -5.9039 13.0637 1.3366
v  -7.3521 10.5553 1.3366
v  -7.3521 4.8505 1.4609
v  -7.8551 7.7029 1.4609
v  -5.9039 2.3421 1.4609
v  -3.6851 0.4803 1.4609
v  -0.9634 -0.5103 1.4609
v  1.9330 -0.5103 1.4609
v  4.6548 0.4803 1.4609
v  6.8736 2.3421 1.4609
v  8.3218 4.8505 1.4609
v  8.8247 7.7029 1.4609
v  8.3218 10.5553 1.4609
v  6.8736 13.0637 1.4609
v  4.6548 14.9255 1.4609
v  1.9330 15.9161 1.4609
v  -0.9634 15.9161 1.4609
v  -3.6851 14.9255 1.4609
v  -5.9039 13.0637 1.4609
v  -7.3521 10.5553 1.4609
v  0.4848 7.7029 1.4609
# 110 vertices

vn -0.0000 -0.0000 -1.0000
vn -1.0000 0.0000 0.0000
vn -0.9397 -0.3420 0.0000
vn -0.7660 -0.6428 0.0000
vn -0.5000 -0.8660 0.0000
vn -0.1736 -0.9848 0.0000
vn 0.1736 -0.9848 0.0000
vn 0.5000 -0.8660 -0.0000
vn 0.7660 -0.6428 -0.0000
vn 0.9397 -0.3420 -0.0000
vn 1.0000 -0.0000 -0.0000
vn 0.9397 0.3420 -0.0000
vn 0.7660 0.6428 -0.0000
vn 0.5000 0.8660 -0.0000
vn 0.1736 0.9848 -0.0000
vn -0.1736 0.9848 -0.0000
vn -0.5000 0.8660 0.0000
vn -0.7660 0.6428 0.0000
vn -0.9397 0.3420 0.0000
vn 0.0000 0.0000 1.0000
# 20 vertex normals

vt 0.4950 0.2500 0.9995
vt 0.9272 0.1582 0.9995
vt 0.9549 0.2500 0.9995
vt 0.8473 0.0775 0.9995
vt 0.7250 0.0175 0.9995
vt 0.5749 -0.0143 0.9995
vt 0.4151 -0.0143 0.9995
vt 0.2650 0.0175 0.9995
vt 0.1427 0.0775 0.9995
vt 0.0628 0.1582 0.9995
vt 0.0351 0.2500 0.9995
vt 0.0628 0.3418 0.9995
vt 0.1427 0.4225 0.9995
vt 0.2650 0.4825 0.9995
vt 0.4151 0.5143 0.9995
vt 0.5749 0.5143 0.9995
vt 0.7250 0.4825 0.9995
vt 0.8473 0.4225 0.9995
vt 0.9272 0.3418 0.9995
vt 0.9272 0.1582 0.7997
vt 0.9549 0.2500 0.7997
vt 0.8473 0.0775 0.7997
vt 0.7250 0.0175 0.7997
vt 0.5749 -0.0143 0.7997
vt 0.4151 -0.0143 0.7997
vt 0.2650 0.0175 0.7997
vt 0.1427 0.0775 0.7997
vt 0.0628 0.1582 0.7997
vt 0.0351 0.2500 0.7997
vt 0.0628 0.3418 0.7997
vt 0.1427 0.4225 0.7997
vt 0.2650 0.4825 0.7997
vt 0.4151 0.5143 0.7997
vt 0.5749 0.5143 0.7997
vt 0.7250 0.4825 0.7997
vt 0.8473 0.4225 0.7997
vt 0.9272 0.3418 0.7997
vt 0.9272 0.1582 0.5999
vt 0.9549 0.2500 0.5999
vt 0.8473 0.0775 0.5999
vt 0.7250 0.0175 0.5999
vt 0.5749 -0.0143 0.5999
vt 0.4151 -0.0143 0.5999
vt 0.2650 0.0175 0.5999
vt 0.1427 0.0775 0.5999
vt 0.0628 0.1582 0.5999
vt 0.0351 0.2500 0.5999
vt 0.0628 0.3418 0.5999
vt 0.1427 0.4225 0.5999
vt 0.2650 0.4825 0.5999
vt 0.4151 0.5143 0.5999
vt 0.5749 0.5143 0.5999
vt 0.7250 0.4825 0.5999
vt 0.8473 0.4225 0.5999
vt 0.9272 0.3418 0.5999
vt 0.9272 0.1582 0.4001
vt 0.9549 0.2500 0.4001
vt 0.8473 0.0775 0.4001
vt 0.7250 0.0175 0.4001
vt 0.5749 -0.0143 0.4001
vt 0.4151 -0.0143 0.4001
vt 0.2650 0.0175 0.4001
vt 0.1427 0.0775 0.4001
vt 0.0628 0.1582 0.4001
vt 0.0351 0.2500 0.4001
vt 0.0628 0.3418 0.4001
vt 0.1427 0.4225 0.4001
vt 0.2650 0.4825 0.4001
vt 0.4151 0.5143 0.4001
vt 0.5749 0.5143 0.4001
vt 0.7250 0.4825 0.4001
vt 0.8473 0.4225 0.4001
vt 0.9272 0.3418 0.4001
vt 0.9272 0.1582 0.2003
vt 0.9549 0.2500 0.2003
vt 0.8473 0.0775 0.2003
vt 0.7250 0.0175 0.2003
vt 0.5749 -0.0143 0.2003
vt 0.4151 -0.0143 0.2003
vt 0.2650 0.0175 0.2003
vt 0.1427 0.0775 0.2003
vt 0.0628 0.1582 0.2003
vt 0.0351 0.2500 0.2003
vt 0.0628 0.3418 0.2003
vt 0.1427 0.4225 0.2003
vt 0.2650 0.4825 0.2003
vt 0.4151 0.5143 0.2003
vt 0.5749 0.5143 0.2003
vt 0.7250 0.4825 0.2003
vt 0.8473 0.4225 0.2003
vt 0.9272 0.3418 0.2003
vt 0.9272 0.1582 0.0005
vt 0.9549 0.2500 0.0005
vt 0.8473 0.0775 0.0005
vt 0.7250 0.0175 0.0005
vt 0.5749 -0.0143 0.0005
vt 0.4151 -0.0143 0.0005
vt 0.2650 0.0175 0.0005
vt 0.1427 0.0775 0.0005
vt 0.0628 0.1582 0.0005
vt 0.0351 0.2500 0.0005
vt 0.0628 0.3418 0.0005
vt 0.1427 0.4225 0.0005
vt 0.2650 0.4825 0.0005
vt 0.4151 0.5143 0.0005
vt 0.5749 0.5143 0.0005
vt 0.7250 0.4825 0.0005
vt 0.8473 0.4225 0.0005
vt 0.9272 0.3418 0.0005
vt 0.4950 0.2500 0.0005
# 110 texture coords

g Cylinder001
usemtl Material__25
s 1
f 1/1/1 2/2/1 3/3/1 
f 1/1/1 4/4/1 2/2/1 
f 1/1/1 5/5/1 4/4/1 
f 1/1/1 6/6/1 5/5/1 
f 1/1/1 7/7/1 6/6/1 
f 1/1/1 8/8/1 7/7/1 
f 1/1/1 9/9/1 8/8/1 
f 1/1/1 10/10/1 9/9/1 
f 1/1/1 11/11/1 10/10/1 
f 1/1/1 12/12/1 11/11/1 
f 1/1/1 13/13/1 12/12/1 
f 1/1/1 14/14/1 13/13/1 
f 1/1/1 15/15/1 14/14/1 
f 1/1/1 16/16/1 15/15/1 
f 1/1/1 17/17/1 16/16/1 
f 1/1/1 18/18/1 17/17/1 
f 1/1/1 19/19/1 18/18/1 
f 1/1/1 3/3/1 19/19/1 
s 8
f 3/3/2 20/20/3 21/21/2 
f 3/3/2 2/2/3 20/20/3 
f 2/2/3 22/22/4 20/20/3 
f 2/2/3 4/4/4 22/22/4 
f 4/4/4 23/23/5 22/22/4 
f 4/4/4 5/5/5 23/23/5 
f 5/5/5 24/24/6 23/23/5 
f 5/5/5 6/6/6 24/24/6 
f 6/6/6 25/25/7 24/24/6 
f 6/6/6 7/7/7 25/25/7 
f 7/7/7 26/26/8 25/25/7 
f 7/7/7 8/8/8 26/26/8 
f 8/8/8 27/27/9 26/26/8 
f 8/8/8 9/9/9 27/27/9 
f 9/9/9 28/28/10 27/27/9 
f 9/9/9 10/10/10 28/28/10 
f 10/10/10 29/29/11 28/28/10 
f 10/10/10 11/11/11 29/29/11 
f 11/11/11 30/30/12 29/29/11 
f 11/11/11 12/12/12 30/30/12 
f 12/12/12 31/31/13 30/30/12 
f 12/12/12 13/13/13 31/31/13 
f 13/13/13 32/32/14 31/31/13 
f 13/13/13 14/14/14 32/32/14 
f 14/14/14 33/33/15 32/32/14 
f 14/14/14 15/15/15 33/33/15 
f 15/15/15 34/34/16 33/33/15 
f 15/15/15 16/16/16 34/34/16 
f 16/16/16 35/35/17 34/34/16 
f 16/16/16 17/17/17 35/35/17 
f 17/17/17 36/36/18 35/35/17 
f 17/17/17 18/18/18 36/36/18 
f 18/18/18 37/37/19 36/36/18 
f 18/18/18 19/19/19 37/37/19 
f 19/19/19 21/21/2 37/37/19 
f 19/19/19 3/3/2 21/21/2 
f 21/21/2 38/38/3 39/39/2 
f 21/21/2 20/20/3 38/38/3 
f 20/20/3 40/40/4 38/38/3 
f 20/20/3 22/22/4 40/40/4 
f 22/22/4 41/41/5 40/40/4 
f 22/22/4 23/23/5 41/41/5 
f 23/23/5 42/42/6 41/41/5 
f 23/23/5 24/24/6 42/42/6 
f 24/24/6 43/43/7 42/42/6 
f 24/24/6 25/25/7 43/43/7 
f 25/25/7 44/44/8 43/43/7 
f 25/25/7 26/26/8 44/44/8 
f 26/26/8 45/45/9 44/44/8 
f 26/26/8 27/27/9 45/45/9 
f 27/27/9 46/46/10 45/45/9 
f 27/27/9 28/28/10 46/46/10 
f 28/28/10 47/47/11 46/46/10 
f 28/28/10 29/29/11 47/47/11 
f 29/29/11 48/48/12 47/47/11 
f 29/29/11 30/30/12 48/48/12 
f 30/30/12 49/49/13 48/48/12 
f 30/30/12 31/31/13 49/49/13 
f 31/31/13 50/50/14 49/49/13 
f 31/31/13 32/32/14 50/50/14 
f 32/32/14 51/51/15 50/50/14 
f 32/32/14 33/33/15 51/51/15 
f 33/33/15 52/52/16 51/51/15 
f 33/33/15 34/34/16 52/52/16 
f 34/34/16 53/53/17 52/52/16 
f 34/34/16 35/35/17 53/53/17 
f 35/35/17 54/54/18 53/53/17 
f 35/35/17 36/36/18 54/54/18 
f 36/36/18 55/55/19 54/54/18 
f 36/36/18 37/37/19 55/55/19 
f 37/37/19 39/39/2 55/55/19 
f 37/37/19 21/21/2 39/39/2 
f 39/39/2 56/56/3 57/57/2 
f 39/39/2 38/38/3 56/56/3 
f 38/38/3 58/58/4 56/56/3 
f 38/38/3 40/40/4 58/58/4 
f 40/40/4 59/59/5 58/58/4 
f 40/40/4 41/41/5 59/59/5 
f 41/41/5 60/60/6 59/59/5 
f 41/41/5 42/42/6 60/60/6 
f 42/42/6 61/61/7 60/60/6 
f 42/42/6 43/43/7 61/61/7 
f 43/43/7 62/62/8 61/61/7 
f 43/43/7 44/44/8 62/62/8 
f 44/44/8 63/63/9 62/62/8 
f 44/44/8 45/45/9 63/63/9 
f 45/45/9 64/64/10 63/63/9 
f 45/45/9 46/46/10 64/64/10 
f 46/46/10 65/65/11 64/64/10 
f 46/46/10 47/47/11 65/65/11 
f 47/47/11 66/66/12 65/65/11 
f 47/47/11 48/48/12 66/66/12 
f 48/48/12 67/67/13 66/66/12 
f 48/48/12 49/49/13 67/67/13 
f 49/49/13 68/68/14 67/67/13 
f 49/49/13 50/50/14 68/68/14 
f 50/50/14 69/69/15 68/68/14 
f 50/50/14 51/51/15 69/69/15 
f 51/51/15 70/70/16 69/69/15 
f 51/51/15 52/52/16 70/70/16 
f 52/52/16 71/71/17 70/70/16 
f 52/52/16 53/53/17 71/71/17 
f 53/53/17 72/72/18 71/71/17 
f 53/53/17 54/54/18 72/72/18 
f 54/54/18 73/73/19 72/72/18 
f 54/54/18 55/55/19 73/73/19 
f 55/55/19 57/57/2 73/73/19 
f 55/55/19 39/39/2 57/57/2 
f 57/57/2 74/74/3 75/75/2 
f 57/57/2 56/56/3 74/74/3 
f 56/56/3 76/76/4 74/74/3 
f 56/56/3 58/58/4 76/76/4 
f 58/58/4 77/77/5 76/76/4 
f 58/58/4 59/59/5 77/77/5 
f 59/59/5 78/78/6 77/77/5 
f 59/59/5 60/60/6 78/78/6 
f 60/60/6 79/79/7 78/78/6 
f 60/60/6 61/61/7 79/79/7 
f 61/61/7 80/80/8 79/79/7 
f 61/61/7 62/62/8 80/80/8 
f 62/62/8 81/81/9 80/80/8 
f 62/62/8 63/63/9 81/81/9 
f 63/63/9 82/82/10 81/81/9 
f 63/63/9 64/64/10 82/82/10 
f 64/64/10 83/83/11 82/82/10 
f 64/64/10 65/65/11 83/83/11 
f 65/65/11 84/84/12 83/83/11 
f 65/65/11 66/66/12 84/84/12 
f 66/66/12 85/85/13 84/84/12 
f 66/66/12 67/67/13 85/85/13 
f 67/67/13 86/86/14 85/85/13 
f 67/67/13 68/68/14 86/86/14 
f 68/68/14 87/87/15 86/86/14 
f 68/68/14 69/69/15 87/87/15 
f 69/69/15 88/88/16 87/87/15 
f 69/69/15 70/70/16 88/88/16 
f 70/70/16 89/89/17 88/88/16 
f 70/70/16 71/71/17 89/89/17 
f 71/71/17 90/90/18 89/89/17 
f 71/71/17 72/72/18 90/90/18 
f 72/72/18 91/91/19 90/90/18 
f 72/72/18 73/73/19 91/91/19 
f 73/73/19 75/75/2 91/91/19 
f 73/73/19 57/57/2 75/75/2 
f 75/75/2 92/92/3 93/93/2 
f 75/75/2 74/74/3 92/92/3 
f 74/74/3 94/94/4 92/92/3 
f 74/74/3 76/76/4 94/94/4 
f 76/76/4 95/95/5 94/94/4 
f 76/76/4 77/77/5 95/95/5 
f 77/77/5 96/96/6 95/95/5 
f 77/77/5 78/78/6 96/96/6 
f 78/78/6 97/97/7 96/96/6 
f 78/78/6 79/79/7 97/97/7 
f 79/79/7 98/98/8 97/97/7 
f 79/79/7 80/80/8 98/98/8 
f 80/80/8 99/99/9 98/98/8 
f 80/80/8 81/81/9 99/99/9 
f 81/81/9 100/100/10 99/99/9 
f 81/81/9 82/82/10 100/100/10 
f 82/82/10 101/101/11 100/100/10 
f 82/82/10 83/83/11 101/101/11 
f 83/83/11 102/102/12 101/101/11 
f 83/83/11 84/84/12 102/102/12 
f 84/84/12 103/103/13 102/102/12 
f 84/84/12 85/85/13 103/103/13 
f 85/85/13 104/104/14 103/103/13 
f 85/85/13 86/86/14 104/104/14 
f 86/86/14 105/105/15 104/104/14 
f 86/86/14 87/87/15 105/105/15 
f 87/87/15 106/106/16 105/105/15 
f 87/87/15 88/88/16 106/106/16 
f 88/88/16 107/107/17 106/106/16 
f 88/88/16 89/89/17 107/107/17 
f 89/89/17 108/108/18 107/107/17 
f 89/89/17 90/90/18 108/108/18 
f 90/90/18 109/109/19 108/108/18 
f 90/90/18 91/91/19 109/109/19 
f 91/91/19 93/93/2 109/109/19 
f 91/91/19 75/75/2 93/93/2 
s 1
f 110/110/20 93/93/20 92/92/20 
f 110/110/20 92/92/20 94/94/20 
f 110/110/20 94/94/20 95/95/20 
f 110/110/20 95/95/20 96/96/20 
f 110/110/20 96/96/20 97/97/20 
f 110/110/20 97/97/20 98/98/20 
f 110/110/20 98/98/20 99/99/20 
f 110/110/20 99/99/20 100/100/20 
f 110/110/20 100/100/20 101/101/20 
f 110/110/20 101/101/20 102/102/20 
f 110/110/20 102/102/20 103/103/20 
f 110/110/20 103/103/20 104/104/20 
f 110/110/20 104/104/20 105/105/20 
f 110/110/20 105/105/20 106/106/20 
f 110/110/20 106/106/20 107/107/20 
f 110/110/20 107/107/20 108/108/20 
f 110/110/20 108/108/20 109/109/20 
f 110/110/20 109/109/20 93/93/20 
# 216 faces

